<?xml version="1.0" encoding="utf-8"?>
<!-- Generator: Adobe Illustrator 26.4.0, SVG Export Plug-In . SVG Version: 6.00 Build 0)  -->
<svg version="1.1" id="Layer_1" xmlns="http://www.w3.org/2000/svg" xmlns:xlink="http://www.w3.org/1999/xlink" x="0px" y="0px"
	 viewBox="0 0 1588.7 588.6" style="enable-background:new 0 0 1588.7 588.6;" xml:space="preserve">
<style type="text/css">
	.st0{fill:#002B3D;}
	.st1{fill:#00AADF;}
</style>
<g>
	<path class="st0" d="M413.2,402.7h-30.5v-94.2H278.2v94.2h-30.5V185.9h30.5v94h104.5v-94h30.5V402.7z"/>
	<path class="st0" d="M606.2,402.7h-131V185.9h131v28.6H505.7v65.3h93.9v28.6h-93.9v65.5h100.5V402.7z"/>
	<path class="st0" d="M905.6,402.7h-30.5V185.9h30.5V402.7z"/>
	<g>
		<path class="st0" d="M1124,402.7h-35.1l-44.8-83c-1.5,0.1-3,0.1-4.4,0.1h-41.8v82.9h-30.5V185.9h72.1c15.5,0,28.7,2.9,39.3,8.6
			c10.8,5.8,19,13.9,24.5,24.1c5.4,10.1,8.2,21.7,8.2,34.6c0,12.9-2.8,24.5-8.2,34.4c-5.5,10.1-13.8,18.2-24.5,23.8
			c-1.1,0.6-2.3,1.2-3.5,1.7L1124,402.7z M997.9,290.9h41.3c9.7,0,17.8-1.6,24-4.7c6-3,10.4-7.1,13.3-12.6c3-5.6,4.6-12.5,4.6-20.4
			c0-7.9-1.6-14.9-4.6-20.7c-3-5.7-7.4-9.9-13.4-13.1c-6.2-3.2-14.4-4.8-24.2-4.8h-41V290.9z"/>
	</g>
	<path class="st0" d="M1341,402.7h-32.2l-22-61.8h-77.6l-22,61.8H1155l78.9-216.8h28.3L1341,402.7z M1219.4,312.3h57.3l-28.6-80.5
		L1219.4,312.3z"/>
	<g>
		<path class="st1" d="M681.9,185.7H637l111.3,104.6v8.1l-7.8,7.3l22.4,21.1l16.1-15.1V277L681.9,185.7z M637.2,402.9h44.9
			l58.5-54.9l-22.4-21.1L637.2,402.9z"/>
		<path class="st0" d="M844,185.7h-44.9l-58.6,55.1l22.4,21.1L844,185.7z M732.7,290.3l3.9-3.4l-22.4-21.1L702,277v34.7l97,91.1
			h44.9L732.7,298.4V290.3z"/>
	</g>
</g>
</svg>
