<svg width="140" height="28" viewBox="0 0 140 28" fill="none" xmlns="http://www.w3.org/2000/svg">
<path d="M21.1931 27.7916H17.2874V15.7288H3.90568V27.7916H0V0.0292969H3.90568V12.0665H17.2874V0.0292969H21.1931V27.7916Z" fill="#0D1551"/>
<path d="M45.9061 27.7916H29.1309V0.0292969H45.9061V3.69167H33.0365V12.0537H45.0609V15.716H33.0365V24.1036H45.9061V27.7916Z" fill="#0D1551"/>
<path d="M84.2475 27.7916H80.3418V0.0292969H84.2475V27.7916Z" fill="#0D1551"/>
<path d="M112.216 27.7877H107.722L101.985 17.1591C101.793 17.1719 101.601 17.1719 101.421 17.1719H96.0688V27.7877H92.1631V0.0253906H101.396C103.381 0.0253906 105.071 0.396751 106.428 1.12666C107.811 1.86938 108.861 2.90663 109.566 4.21279C110.257 5.50614 110.616 6.99158 110.616 8.64349C110.616 10.2954 110.257 11.7808 109.566 13.0486C108.861 14.3419 107.799 15.3792 106.428 16.0963C106.288 16.1731 106.134 16.2499 105.98 16.314L112.216 27.7877ZM96.0688 13.4712H101.357C102.6 13.4712 103.637 13.2663 104.431 12.8693C105.199 12.4851 105.763 11.9601 106.134 11.2558C106.518 10.5387 106.723 9.65512 106.723 8.64349C106.723 7.63185 106.518 6.73547 106.134 5.99275C105.75 5.26284 105.186 4.72501 104.418 4.31523C103.624 3.90545 102.574 3.70057 101.319 3.70057H96.0688V13.4712Z" fill="#0D1551"/>
<path d="M140 27.7916H135.877L133.06 19.8778H123.122L120.305 27.7916H116.182L126.285 0.0292969H129.909L140 27.7916ZM124.429 16.2154H131.766L128.104 5.90702L124.429 16.2154Z" fill="#0D1551"/>
<path d="M55.6032 0H49.8535L64.106 13.3945V14.4318L63.1072 15.3666L65.9756 18.0685L68.0373 16.1349V11.6914L55.6032 0ZM49.8791 27.8135H55.6288L63.12 20.7833L60.2516 18.0814L49.8791 27.8135Z" fill="#04A5C9"/>
<path d="M76.3576 0H70.608L63.1039 7.05583L65.9724 9.75778L76.3576 0ZM62.1051 13.3945L62.6045 12.9592L59.7361 10.2572L58.1738 11.6914V16.1349L70.5952 27.8007H76.3448L62.1051 14.4318V13.3945Z" fill="#0D1551"/>
</svg>
